<?xml version="1.0" encoding="UTF-8" standalone="no" ?>
<!DOCTYPE svg PUBLIC "-//W3C//DTD SVG 1.1//EN" "http://www.w3.org/Graphics/SVG/1.1/DTD/svg11.dtd">
<svg xmlns="http://www.w3.org/2000/svg" xmlns:xlink="http://www.w3.org/1999/xlink" version="1.1" width="1080" height="1080" viewBox="0 0 1080 1080" xml:space="preserve">
<desc>Created with Fabric.js 5.2.4</desc>
<defs>
</defs>
<g transform="matrix(1 0 0 1 540 540)" id="dc0caeff-4342-4ece-882b-49f8e67d7b0f"  >
<rect style="stroke: none; stroke-width: 1; stroke-dasharray: none; stroke-linecap: butt; stroke-dashoffset: 0; stroke-linejoin: miter; stroke-miterlimit: 4; fill: rgb(255,255,255); fill-rule: nonzero; opacity: 1; visibility: hidden;" vector-effect="non-scaling-stroke"  x="-540" y="-540" rx="0" ry="0" width="1080" height="1080" />
</g>
<g transform="matrix(1 0 0 1 540 540)" id="177518cc-4593-4b92-b5a8-313b5c5076cd"  >
</g>
<g transform="matrix(1 0 0 1 540 540)"  >
<g style="" vector-effect="non-scaling-stroke"   >
		<g transform="matrix(0.13 0 0 -0.13 0 -0.33)"  >
<path style="stroke: none; stroke-width: 1; stroke-dasharray: none; stroke-linecap: butt; stroke-dashoffset: 0; stroke-linejoin: miter; stroke-miterlimit: 4; fill: rgb(255,193,7); fill-rule: nonzero; opacity: 1;" vector-effect="non-scaling-stroke"  transform=" translate(-2553.19, -2497.5)" d="M 2408 3573 C 2393 3557 2125 3090 2116 3065 C 2114 3060 2097 3070 2078 3088 C 2016 3147 2000 3133 1935 2965 C 1910 2899 1883 2837 1875 2826 C 1862 2808 1859 2809 1814 2834 C 1789 2848 1759 2860 1750 2860 C 1732 2860 1655 2744 1579 2603 C 1557 2563 1538 2540 1525 2538 C 1511 2536 1498 2517 1481 2473 C 1458 2415 1456 2412 1433 2421 C 1378 2442 1363 2434 1321 2363 C 1283 2299 1192 2182 846 1749 C 675 1536 677 1539 720 1572 C 739 1588 820 1643 900 1696 C 980 1749 1069 1808 1098 1828 C 1153 1864 1437 2175 1465 2230 C 1474 2247 1490 2297 1501 2341 C 1532 2467 1554 2499 1576 2450 C 1585 2431 1586 2431 1630 2460 C 1654 2476 1675 2488 1677 2487 C 1678 2485 1671 2452 1661 2412 C 1650 2372 1646 2340 1650 2340 C 1655 2340 1686 2394 1720 2460 C 1757 2533 1805 2609 1844 2656 C 1899 2722 1914 2749 1960 2870 C 1989 2947 2019 3018 2026 3027 C 2038 3044 2039 3043 2040 3020 C 2040 3006 2033 2973 2024 2945 C 1994 2849 1991 2840 1996 2840 C 1999 2840 2015 2870 2032 2908 C 2052 2951 2065 2969 2067 2958 C 2073 2934 2094 2936 2124 2963 C 2137 2975 2208 3093 2281 3225 C 2353 3357 2418 3471 2424 3478 C 2433 3487 2452 3466 2507 3383 C 2547 3323 2622 3217 2674 3145 C 2790 2988 2826 2922 2835 2852 C 2841 2807 2851 2789 2897 2734 C 2927 2699 2946 2670 2940 2670 C 2934 2670 2898 2691 2860 2718 C 2793 2764 2790 2767 2750 2863 C 2728 2917 2704 2982 2697 3007 C 2688 3043 2672 3063 2621 3108 C 2563 3159 2550 3178 2498 3288 C 2466 3356 2436 3408 2431 3406 C 2426 3403 2421 3374 2418 3342 C 2416 3305 2406 3273 2394 3254 C 2382 3238 2369 3197 2363 3163 C 2354 3106 2355 3102 2371 3111 C 2381 3116 2392 3125 2395 3130 C 2398 3136 2406 3140 2412 3140 C 2423 3140 2417 2987 2403 2898 L 2398 2860 L 2372 2880 C 2326 2917 2303 2907 2208 2813 C 2159 2765 2120 2730 2120 2736 C 2120 2743 2127 2766 2135 2789 C 2148 2828 2147 2860 2130 2860 C 2126 2860 2094 2829 2059 2791 C 2008 2737 1989 2708 1967 2646 C 1951 2604 1936 2570 1932 2570 C 1928 2570 1919 2584 1912 2600 C 1899 2628 1901 2634 1925 2675 C 1939 2700 1947 2720 1942 2720 C 1930 2720 1866 2650 1850 2620 C 1840 2602 1810 2499 1810 2484 C 1810 2481 1824 2495 1841 2515 C 1859 2535 1875 2548 1878 2546 C 1884 2539 1665 2133 1634 2095 C 1611 2066 1611 2067 1639 2135 C 1695 2268 1731 2377 1712 2351 C 1663 2289 1564 2089 1526 1975 C 1486 1856 1485 1851 1507 1865 C 1528 1879 1530 1879 1530 1864 C 1530 1856 1534 1850 1539 1852 C 1551 1856 1847 2196 1934 2305 C 1974 2355 2042 2440 2085 2494 L 2165 2594 L 2173 2484 L 2181 2375 L 2153 2353 C 2114 2321 2107 2324 2115 2367 C 2121 2400 2120 2402 2106 2391 C 2081 2370 1999 2258 2004 2252 C 2007 2250 2024 2260 2042 2275 L 2075 2303 L 2080 2249 C 2084 2209 2087 2200 2093 2216 C 2097 2228 2116 2259 2135 2286 L 2170 2335 L 2170 2304 C 2170 2267 2144 2120 2129 2072 C 2121 2047 2103 2031 2047 1998 C 2007 1976 1957 1943 1935 1926 C 1854 1863 1689 1718 1693 1714 C 1696 1711 1794 1757 1911 1815 C 2068 1892 2134 1931 2159 1958 C 2261 2069 2561 2399 2580 2420 L 2601 2445 L 2583 2412 C 2562 2373 2378 2126 2277 2000 C 2221 1931 2198 1910 2152 1889 C 2107 1868 2062 1829 1940 1706 C 1797 1561 1781 1548 1730 1534 C 1651 1512 1360 1417 1362 1414 C 1364 1413 1460 1410 1575 1408 L 1786 1405 L 1895 1496 C 1956 1546 2064 1633 2135 1690 C 2207 1747 2317 1837 2381 1890 C 2713 2163 2802 2235 2816 2238 C 2824 2240 2856 2223 2885 2201 C 2915 2178 2940 2162 2940 2165 C 2940 2181 2845 2293 2824 2302 C 2804 2311 2793 2308 2748 2273 C 2719 2252 2680 2223 2661 2211 L 2628 2187 L 2635 2231 C 2642 2275 2642 2275 2623 2255 C 2612 2244 2565 2190 2518 2135 C 2432 2035 2350 1952 2365 1980 C 2383 2012 2772 2580 2779 2585 C 2784 2587 2812 2562 2841 2528 C 2908 2451 3200 2149 3299 2055 L 3373 1985 L 3321 2062 C 3256 2160 3152 2284 3019 2425 C 2962 2486 2904 2547 2891 2562 L 2868 2589 L 2911 2601 C 2935 2607 2973 2616 2995 2621 L 3035 2628 L 3160 2502 C 3230 2432 3315 2348 3351 2315 C 3386 2282 3451 2211 3495 2156 C 3538 2102 3576 2062 3578 2068 C 3580 2074 3554 2125 3521 2181 C 3488 2238 3463 2286 3465 2289 C 3468 2291 3472 2291 3473 2289 C 3623 2109 3682 2033 3706 1997 C 3729 1960 3741 1950 3771 1945 C 3791 1941 3821 1929 3837 1917 C 3853 1905 3983 1807 4124 1700 C 4447 1456 4433 1465 4385 1525 C 4276 1662 3946 2055 3880 2126 C 3805 2208 3707 2342 3532 2605 C 3480 2682 3433 2748 3426 2752 C 3420 2756 3399 2760 3380 2760 C 3336 2760 3333 2763 3280 2833 C 3256 2865 3225 2897 3210 2905 C 3195 2913 3158 2945 3127 2976 L 3072 3034 L 2981 2997 C 2931 2977 2886 2960 2880 2960 C 2875 2960 2861 2979 2849 3002 C 2837 3025 2794 3089 2753 3144 C 2712 3200 2626 3323 2563 3418 C 2500 3512 2443 3590 2436 3590 C 2429 3590 2416 3582 2408 3573 z M 2657 2913 C 2693 2837 2733 2748 2745 2715 L 2768 2655 L 2724 2628 L 2680 2601 L 2645 2631 C 2610 2662 2578 2732 2564 2806 L 2557 2845 L 2587 2817 L 2617 2789 L 2604 2852 C 2587 2934 2575 3050 2584 3050 C 2588 3050 2621 2988 2657 2913 z M 3066 2944 C 3063 2935 3060 2907 3060 2882 C 3060 2829 3045 2797 3032 2818 C 3025 2828 3019 2826 3006 2811 C 2993 2796 2990 2783 2995 2758 C 3004 2716 2993 2726 2936 2811 L 2893 2875 L 2974 2916 C 3069 2963 3074 2965 3066 2944 z M 3105 2850 C 3111 2828 3111 2827 3097 2840 C 3088 2848 3079 2873 3076 2895 L 3070 2935 L 3084 2905 C 3091 2889 3101 2864 3105 2850 z M 2495 2701 C 2628 2570 2640 2556 2626 2541 C 2611 2527 2599 2536 2490 2645 C 2424 2710 2368 2762 2365 2759 C 2362 2756 2401 2698 2451 2630 L 2542 2507 L 2519 2476 C 2461 2396 2473 2390 2404 2532 C 2369 2602 2337 2660 2333 2660 C 2328 2660 2314 2633 2300 2600 C 2286 2567 2272 2540 2269 2540 C 2261 2540 2240 2645 2240 2688 C 2240 2730 2318 2862 2337 2852 C 2343 2848 2415 2780 2495 2701 z M 3294 2720 C 3307 2695 3328 2650 3339 2620 L 3360 2565 L 3335 2595 C 3304 2630 3268 2699 3240 2772 L 3220 2825 L 3244 2795 C 3258 2779 3280 2745 3294 2720 z M 1750 2717 C 1743 2680 1731 2645 1723 2638 C 1709 2627 1708 2628 1714 2647 C 1725 2680 1706 2682 1685 2649 C 1674 2633 1659 2618 1651 2615 C 1642 2611 1644 2619 1656 2638 C 1731 2753 1755 2788 1758 2786 C 1760 2784 1756 2753 1750 2717 z M 3200 2761 C 3200 2750 3214 2702 3231 2653 C 3302 2451 3301 2445 3219 2570 C 3191 2614 3165 2650 3163 2650 C 3160 2650 3160 2634 3162 2615 C 3164 2596 3165 2580 3164 2580 C 3163 2580 3139 2606 3111 2638 L 3061 2697 L 3123 2738 C 3195 2785 3200 2786 3200 2761 z M 3680 2276 C 3710 2232 3804 2117 3887 2018 L 4039 1840 L 3962 1899 C 3920 1931 3855 1976 3818 1999 C 3740 2048 3689 2102 3596 2234 C 3513 2350 3496 2367 3476 2351 C 3464 2341 3454 2345 3423 2374 C 3387 2406 3323 2506 3332 2515 C 3336 2519 3455 2423 3533 2353 C 3555 2334 3574 2321 3577 2323 C 3579 2326 3570 2347 3555 2370 C 3534 2403 3423 2625 3402 2675 C 3400 2681 3449 2611 3511 2520 C 3574 2429 3650 2319 3680 2276 z M 2380 2454 C 2380 2431 2320 2287 2313 2294 C 2311 2296 2318 2337 2329 2385 C 2341 2433 2350 2484 2350 2498 L 2351 2525 L 2365 2500 C 2373 2486 2379 2465 2380 2454 z M 1364 2259 C 1347 2153 1341 2143 1215 2041 C 1053 1908 1045 1907 1141 2025 C 1219 2121 1306 2245 1342 2308 C 1359 2337 1374 2359 1376 2357 C 1378 2355 1373 2311 1364 2259 z M 1445 2281 C 1463 2274 1462 2272 1435 2244 L 1405 2215 L 1402 2238 C 1398 2265 1406 2290 1417 2289 C 1421 2289 1434 2285 1445 2281 z" stroke-linecap="round" />
</g>
		<g transform="matrix(0.13 0 0 -0.13 143.78 64.41)"  >
<path style="stroke: none; stroke-width: 1; stroke-dasharray: none; stroke-linecap: butt; stroke-dashoffset: 0; stroke-linejoin: miter; stroke-miterlimit: 4; fill: rgb(255,193,7); fill-rule: nonzero; opacity: 1;" vector-effect="non-scaling-stroke"  transform=" translate(-3631.53, -2011.9)" d="M 3064 2543 C 3066 2533 3074 2505 3081 2481 C 3092 2443 3092 2436 3077 2425 C 3061 2414 3065 2407 3112 2353 C 3141 2320 3208 2244 3260 2184 C 3385 2041 3393 2033 3534 1932 C 3601 1885 3736 1787 3835 1715 C 4227 1430 4284 1399 4104 1569 C 3945 1720 3525 2064 3403 2144 C 3364 2170 3224 2340 3116 2493 C 3068 2561 3055 2574 3064 2543 z" stroke-linecap="round" />
</g>
		<g transform="matrix(0.13 0 0 -0.13 67.16 43.53)"  >
<path style="stroke: none; stroke-width: 1; stroke-dasharray: none; stroke-linecap: butt; stroke-dashoffset: 0; stroke-linejoin: miter; stroke-miterlimit: 4; fill: rgb(255,193,7); fill-rule: nonzero; opacity: 1;" vector-effect="non-scaling-stroke"  transform=" translate(-3056.88, -2168.5)" d="M 2982 2222 C 3000 2207 3047 2170 3085 2141 L 3155 2087 L 3110 2134 C 3060 2187 2978 2250 2961 2250 C 2954 2250 2964 2237 2982 2222 z" stroke-linecap="round" />
</g>
		<g transform="matrix(0.13 0 0 -0.13 -145.69 94.51)"  >
<path style="stroke: none; stroke-width: 1; stroke-dasharray: none; stroke-linecap: butt; stroke-dashoffset: 0; stroke-linejoin: miter; stroke-miterlimit: 4; fill: rgb(255,193,7); fill-rule: nonzero; opacity: 1;" vector-effect="non-scaling-stroke"  transform=" translate(-1460.53, -1786.2)" d="M 1725 1994 C 1601 1857 1577 1834 1515 1803 C 1477 1784 1425 1752 1400 1732 C 1317 1666 1049 1427 1053 1423 C 1063 1414 1263 1508 1477 1623 L 1609 1693 L 1615 1741 C 1623 1795 1700 1926 1809 2069 C 1843 2114 1870 2150 1868 2150 C 1866 2150 1802 2080 1725 1994 z" stroke-linecap="round" />
</g>
		<g transform="matrix(0.13 0 0 -0.13 91.35 94.76)"  >
<path style="stroke: none; stroke-width: 1; stroke-dasharray: none; stroke-linecap: butt; stroke-dashoffset: 0; stroke-linejoin: miter; stroke-miterlimit: 4; fill: rgb(255,193,7); fill-rule: nonzero; opacity: 1;" vector-effect="non-scaling-stroke"  transform=" translate(-3238.33, -1784.29)" d="M 2840 2118 C 2840 2111 2849 2065 2860 2016 C 2882 1919 2875 1884 2839 1893 C 2808 1901 2817 1874 2854 1843 C 2889 1815 3181 1644 3278 1596 C 3307 1581 3366 1556 3408 1541 C 3450 1525 3522 1496 3567 1476 C 3660 1435 3664 1434 3651 1458 C 3630 1496 3431 1725 3425 1718 C 3423 1716 3435 1687 3450 1653 C 3466 1618 3475 1590 3470 1590 C 3465 1590 3384 1673 3290 1774 C 3123 1955 3031 2045 3023 2036 C 3013 2026 3090 1904 3193 1765 L 3253 1685 L 3150 1785 C 3094 1840 3006 1937 2955 2002 C 2858 2122 2840 2141 2840 2118 z" stroke-linecap="round" />
</g>
		<g transform="matrix(0.13 0 0 -0.13 -169.51 71.02)"  >
<path style="stroke: none; stroke-width: 1; stroke-dasharray: none; stroke-linecap: butt; stroke-dashoffset: 0; stroke-linejoin: miter; stroke-miterlimit: 4; fill: rgb(255,193,7); fill-rule: nonzero; opacity: 1;" vector-effect="non-scaling-stroke"  transform=" translate(-1281.89, -1962.33)" d="M 1290 1989 C 1172 1866 1142 1826 1160 1815 C 1171 1808 1273 1913 1334 1994 C 1374 2048 1414 2110 1408 2110 C 1406 2109 1353 2055 1290 1989 z" stroke-linecap="round" />
</g>
		<g transform="matrix(0.13 0 0 -0.13 37.31 101.72)"  >
<path style="stroke: none; stroke-width: 1; stroke-dasharray: none; stroke-linecap: butt; stroke-dashoffset: 0; stroke-linejoin: miter; stroke-miterlimit: 4; fill: rgb(255,193,7); fill-rule: nonzero; opacity: 1;" vector-effect="non-scaling-stroke"  transform=" translate(-2833.02, -1732.13)" d="M 2683 2038 C 2672 2025 2635 1978 2602 1933 C 2562 1880 2497 1814 2417 1747 C 2350 1689 2284 1630 2271 1616 L 2247 1590 L 2276 1590 C 2303 1590 2503 1696 2582 1751 C 2596 1762 2631 1772 2658 1774 L 2708 1778 L 2874 1596 L 3040 1413 L 3107 1407 C 3189 1399 3437 1410 3418 1421 C 3383 1440 3207 1491 3147 1499 C 3089 1507 3072 1515 3030 1550 C 3002 1573 2971 1604 2959 1618 C 2948 1633 2886 1698 2822 1763 L 2706 1882 L 2709 1971 C 2710 2020 2710 2060 2708 2060 C 2705 2060 2694 2050 2683 2038 z" stroke-linecap="round" />
</g>
		<g transform="matrix(0.13 0 0 -0.13 -195.39 107.67)"  >
<path style="stroke: none; stroke-width: 1; stroke-dasharray: none; stroke-linecap: butt; stroke-dashoffset: 0; stroke-linejoin: miter; stroke-miterlimit: 4; fill: rgb(255,193,7); fill-rule: nonzero; opacity: 1;" vector-effect="non-scaling-stroke"  transform=" translate(-1087.78, -1687.5)" d="M 1134 1767 C 1028 1695 1012 1679 949 1575 L 926 1535 L 985 1580 C 1018 1605 1064 1639 1088 1655 C 1149 1696 1272 1840 1246 1840 C 1244 1840 1194 1807 1134 1767 z" stroke-linecap="round" />
</g>
		<g transform="matrix(0.13 0 0 -0.13 -1.5 124.13)"  >
<path style="stroke: none; stroke-width: 1; stroke-dasharray: none; stroke-linecap: butt; stroke-dashoffset: 0; stroke-linejoin: miter; stroke-miterlimit: 4; fill: rgb(255,193,7); fill-rule: nonzero; opacity: 1;" vector-effect="non-scaling-stroke"  transform=" translate(-2541.92, -1564)" d="M 2604 1689 C 2596 1672 2553 1602 2510 1534 L 2431 1410 L 2521 1410 L 2610 1410 L 2610 1436 C 2610 1458 2613 1461 2633 1456 C 2656 1451 2656 1451 2648 1523 C 2644 1563 2641 1623 2641 1658 C 2640 1726 2629 1736 2604 1689 z" stroke-linecap="round" />
</g>
		<g transform="matrix(0.13 0 0 -0.13 -50.51 135.4)"  >
<path style="stroke: none; stroke-width: 1; stroke-dasharray: none; stroke-linecap: butt; stroke-dashoffset: 0; stroke-linejoin: miter; stroke-miterlimit: 4; fill: rgb(255,193,7); fill-rule: nonzero; opacity: 1;" vector-effect="non-scaling-stroke"  transform=" translate(-2174.38, -1479.5)" d="M 2148 1496 C 1927 1392 1930 1401 2113 1400 L 2271 1400 L 2321 1442 C 2348 1464 2370 1486 2370 1490 C 2370 1493 2350 1510 2326 1527 L 2281 1559 L 2148 1496 z" stroke-linecap="round" />
</g>
</g>
</g>
<g transform="matrix(NaN NaN NaN NaN 0 0)"  >
<g style=""   >
</g>
</g>
<g transform="matrix(NaN NaN NaN NaN 0 0)"  >
<g style=""   >
</g>
</g>
</svg>